<svg version="1.2" xmlns="http://www.w3.org/2000/svg" viewBox="0 0 848 381" width="848" height="381">
	<title>KIT GRAPHIQUE ANGELS FLOOR</title>
	<style>
		tspan { white-space:pre } 
		.s0 { fill: #040404 } 
		.s1 { fill: #619a4a } 
		.s2 { fill: #eacf0f } 
		.s3 { fill: #ff5b00 } 
	</style>
	<g id="Layer 1">
		<g id="&lt;Group&gt;">
			<g id="&lt;Group&gt;">
				<path id="&lt;Compound Path&gt;" fill-rule="evenodd" class="s0" d="m743.2 294.3c-0.9 2.9-2.7 5.4-4.9 7.5-3.8 3.6-8 6-13.4 4-4.5-1.8-6.4-5.7-6.2-12.3 0-2 1.4-4.3-0.8-6.5-3.1 1-4.4 3.8-5.9 6.3-4.6 7.6-7.4 15.9-9.7 24.4-0.6 2.1-1.1 4.2-1.9 6.3-1.3 3-3.8 4.4-7.2 4.5-3.7 0.1-6.4-1.3-8-4.6-2.3-4.9-2-10.2-2.3-15.4-0.1-1.7 0.6-4.3-2-4.6-2.7-0.2-5.8-0.6-7.4 2.3-1.1 1.9-1.6 4.1-2.6 6-4.8 9.4-11.8 15.8-23 16.2-12.7 0.4-21.3-5.7-25.3-17.8-0.8-2.4 0-6.1-3.7-6.5-4.3-0.6-5.1 2.9-6.4 6.1-5.7 13.2-15.6 19.2-29 18.2-6.8-0.5-11.6-4.5-16.4-9-6.5 5-13 9.2-21.6 9.2-8.8-0.1-14.6-3.9-18.4-11.4-3.5-6.7-5-14-5.2-21.5-0.2-6.3-0.1-12.6-0.1-19.9-5.2 7.3-12.4 5.8-19.3 6-4.4 0.1-9.5-1.6-12.9 0.9-3.3 2.4-1.6 7.7-2.6 11.7-1.5 5.5-2.7 11.2-5.3 16.4-5.8 11.3-15 17-27.6 17.7-11 0.6-20.7-2.1-28.6-10-3.3-3.3-5.2-7.1-4.1-11.9 0.5-2.4 1.4-4.7 4.1-5.7 2.8-0.9 4.8 0.5 6.6 2.3 1.9 2 3.5 4.3 5.5 6.2 8.7 8.1 20.6 6.2 26.2-4.4 3.7-6.9 4.3-14.6 5-22.2-2.2-1.6-4.5-0.7-6.6-1.1-4.9-1-6.8-3.3-6.7-7.8 0.1-4.7 2.1-7 6.7-8 2.7-0.6 6.1 1 7.8-1.2 2.3-2.7 2-6.7 2.1-10.2 0.2-7.1 2.3-14.1 1.6-21.7-5.8 0.4-11.1 1.3-16.2 3.2-7.3 2.8-9.3 7.8-6.7 15.1 2.4 6.7 1.9 9-2.4 10.8-5.2 2.2-10.8 0.2-13.3-4.7-6-11.5-1.6-26 10.1-32.9 9.7-5.7 20.5-7.5 31.5-8.7 19-2 37.9-1.2 56.8 0.6 3.5 0.3 5.7-0.2 7.5-3.3 2-3.3 4.7-6.1 8.1-8.1 9-5.4 17.6-2.6 21.1 7.3 3.1 8.8 2.4 17.9 0.7 26.9-4.3 21.4-14.3 40.2-26.2 58.2-1 1.6-2.3 3.1-3.2 4.7-2.5 4.7 0.5 10.4 5.7 11.1 7.7 1 14.3-4.8 14.4-12.8 0.1-8.1 1.9-15.8 6.5-22.6 4.7-6.9 11.1-11.4 19.5-12.4 13.1-1.7 22.5 4.6 26.8 17.8 0.8 2.2 0 5.1 3.7 5.4 4 0.4 4.9-2.1 6.3-5 4.8-10.8 12.7-17.8 25.1-18.3 12.5-0.6 20.6 5.4 24.3 18.8 1.3 4.7 3.6 4.6 7.1 4.3 2.8-0.2 3.5-2 4-4.3 0.7-3.5 1.4-7.1 2.5-10.4 2.1-6.6 6.5-9.1 13.2-8.5q5.3 0.5 4.3 5.5c-1 4.8-2.3 9.6-3.4 14.4 0.4 0.8 0.6 1.8 1.9 1.3 2.5-5 5.7-9.4 9.6-13.3 2.7-2.8 5.7-5.1 9.4-6.6 9.6-3.8 15.3-0.1 14.5 10.1-0.3 3.9-0.2 6.4 3.9 8.3 3.8 1.8 3.5 6 2.4 9.6zm-216.9-61.6q-14.4-0.2-28.8-0.4c-2.3-0.1-3.6 0.8-3.8 3.2-0.9 9.7-1.9 19.3-2.8 28.7 11.1 2.9 22.3-2.9 32 5.1 2-11 3.7-21.8 7-32.2 1.1-3.4-0.5-4.4-3.6-4.4zm13.2 50.1c10.1-18.6 18.2-36 18.7-56 0-2.5-0.3-4.9-0.7-7.4-0.1-1-0.8-2.1-1.9-2.3-1.3-0.3-2.3 0.6-2.7 1.5-1.5 2.9-3 5.9-4.1 8.9-4.1 12-6.6 24.4-8.1 36.9-0.7 5.5-2.1 11-1.2 18.4zm57.3 16.5c-4.8-5.1-6.3-11.2-5.9-19.3-7 2-9.9 6.3-10.7 12-1 6.7-2.2 13.7 3.5 19.2 3 2.9 7.7 2.4 11-0.7 3.7-3.5 4.8-8.3 2.1-11.2zm60.6 1.3c-5.8-5.4-7.5-12.3-7.3-20.6-10.8 5.3-14.8 22-8.2 30 0.5 0.6 1.1 1.2 1.7 1.7 3.1 2.2 7.4 1.7 10.4-1.2 3-2.8 5.2-8.2 3.4-9.9z"/>
				<g id="&lt;Group&gt;">
					<path id="&lt;Compound Path&gt;" fill-rule="evenodd" class="s1" d="m732 170.2c-3.5 5.1-3.6 7.5-0.9 11.1 2.6 3.5 7.1 4.3 11.9 2.2 1.5-0.7 2.9-1.7 4.3-2.6 1.8-1.2 3.7-2.8 5.9-1.1 1.8 1.5 2.2 3.8 2 6-0.5 3.8-2.3 6.6-5.3 9-8 6.1-24.4 7.2-31.7-3.9-0.7-1.1-1.6-2.2-2.6-3.6-9 6.3-17.9 12-29.3 12-11.3 0.1-20.5-3.3-27.1-13.3-6.4 4.3-12.4 8.5-18.6 12.6-2.9 1.9-3 5.1-3.6 7.9-2.4 11.3-5.3 22.5-10.2 33-2 4.6-4.4 8.9-7.8 12.5-3.4 3.5-7.2 6-12.1 6.5-11.7 1.3-19.1-6-17.8-17.7 0.9-7.9 4.9-14.5 9.7-20.6 5.2-6.5 11.5-11.8 17.7-17.2 1.8-1.6 4.3-2.6 5.1-5.2-1.7-1.2-3 0.3-4.5 0.6-6.5 1.8-12.6 1.1-17.4-4.1-2.2-2.3-3.9-2.2-6.3-0.4q-7.4 5.8-16.9 5.3c-7.7-0.3-11.4-3.6-12.8-11.2-1-5.6 0.5-11 1.3-16.4 0.8-4.3 2-8.5 1.4-12.9-3.2-1.1-4.2 1.3-5.3 2.9-5.4 7.8-8.7 16.5-11.3 25.5-0.6 2.1-1 4.3-1.8 6.3-2.8 6.9-9.7 8.4-14.1 2.5-2.5-3.3-4.1-3.5-7.1-1.3-4.3 3.3-9.2 4.5-14.6 4.7-10.7 0.5-18-3.9-22.1-13.8-0.4-1-1-1.9-1.5-2.8-0.1-0.2-0.5-0.2-0.8-0.3-1.8 0.8-2.5 2.7-3.6 4.2-7.5 10.5-17.9 14.4-30.3 12.3-11.9-2.1-19.5-9.5-23.6-20.7-4.5-12.1-3.4-24.4-0.5-36.5 8.8-37.1 39.3-58.4 78.6-55.3 5.5 0.4 11 1.1 16.3 2.6 5.3 1.5 7 3.6 6.4 7.9-0.7 4.6-4.4 8.2-8.9 8.2-1.9 0-3.8-0.6-5.7-0.9-7.6-1.5-15.2-2.6-22.9-1.9-23 2.2-39.8 17.9-44.7 41.9-1.7 8.4-2.8 16.8-0.6 25.4 1.6 6.1 4.4 11.5 11 13.1 7.1 1.8 13.1-0.7 17.8-6 4.6-5.2 7.4-11.5 9.8-18 4.9-13.2 7.6-26.9 10.6-40.6 1.6-7.5 5-9.8 12.2-8.8 6.1 0.9 8.1 3.4 6.8 9.6-1.8 9.4-4.2 18.7-6 28.1-1.7 8.4-3.1 16.8-2.6 25.4 0.2 3.9 0.5 8 4.5 9.9 4.4 2.1 8.5 0.6 12.3-2.2 4.1-3.2 6.7-6.8 6.5-12.5-0.2-7.8 1.9-15.3 4-22.7 1-3.6 2.9-6.5 6.8-7.7 2.9-0.9 6.1-1.6 8.7 0.3 2.7 2.1 0.8 5.1 0.4 7.7-0.7 4.6-2.8 8.9-2.5 13.7q0.5 0.4 0.9 0.8c2.6-3.8 5.1-7.7 7.9-11.4 3.5-4.7 7.8-8.5 13.4-10.6 9.6-3.6 15.5 0.7 14.3 10.7-0.8 6.5-2.4 13-3.5 19.5-0.6 3.5-1.2 7-1.6 10.6-0.2 2.1-0.3 4.6 2.2 5.6 2.3 1 4.3-0.1 6.1-1.5 3.3-2.6 5.5-5.5 5.9-10.2 1.3-12 6.9-21.9 16.5-29.4 4.9-3.7 10.3-6.3 16.6-6.4 2.2-0.1 4.7-0.6 6 1.7 1.6 3.1 4.2 2.9 7 3 5.7 0.3 6.8 1.4 6.2 7.1-1 8.4-2.5 16.8-3.9 25.2-0.4 2.7-1.3 5.4-0.6 8.7 5-1.9 8.6-5.7 12.8-8.5 2.1-1.5 1.6-3.9 1.7-6.1 0.3-7.3 2.8-13.9 7.2-19.8 4.2-5.7 9.9-9.6 16.9-10.9 7.4-1.4 14.6-0.8 19.4 5.9 4.7 6.7 4.1 14 0.8 21.1-2.7 5.7-7.7 9.3-13.3 11.8-3.7 1.6-7.6 2.9-11.8 4.6 3.8 6 9.3 6.1 14.7 5.1 7.1-1.2 13.1-5.2 18.7-9.9 2.8-2.4 2.3-5.3 2.2-8.3-0.7-21.9 2.7-43.3 9.8-64 2.4-7 5.4-13.8 9.8-19.9 5.6-7.7 13.3-11.4 19.6-9 8 3 9.4 10.1 10 17.4 1.2 13.8-2.4 26.8-7.3 39.4-5.5 13.8-12.8 26.8-21.2 39zm-112.4 45.2c-7.8 5.6-14.1 12.3-16.9 21.5-0.9 2.9-1.5 6.5 2 7.9 3.1 1.3 4.9-1.7 6.4-4 5-7.6 7.1-16.3 8.5-25.4zm10.4-65.2c-4-1.2-6.5 0.6-8.7 2.6-7.7 6.9-10.7 15.7-10.7 25.8 0 3.2 1.2 6.1 4.6 7 3.5 1 5.7-1.3 7.5-3.9 0.6-0.8 1.2-1.8 1.5-2.8 3.1-9.4 4.5-19.1 5.8-28.7zm43.3 18.8c5.6-1 10.1-3.3 13.4-7.5 3-3.7 3-8.1 0.3-10.4-2.8-2.2-6.9-1.2-9.9 2.8-3.1 4.3-4.9 9.1-3.8 15.1zm69.5-45c3-8.9 5.1-17.9 4.7-27.3-0.1-3.2 0.9-7.9-2.7-8.7-4.3-0.8-5.1 4.2-6.2 7.3-6.9 18.6-9.8 38-10.3 57.9 6.6-9 10.9-18.9 14.5-29.2z"/>
					<path id="&lt;Path&gt;" class="s1" d="m809.5 141.7c0.1-0.2 0.1-0.5 0.2-0.8 0.9-4.1 0-5.5-4.3-6-6.7-0.8-10.6 1.3-13.4 8.1-5.4 13.1-11.9 25.3-21.1 36.1-4.4 5.2-4.7 9.1-1.6 11.5 2.7 2.1 5.8 0.9 10.5-3.8 5.6-5.6 9.8-12.3 14.4-19.2 4.4 4.1 7.3 8.5 8.2 15.2-2.1 0-3.2 0-4.3 0-1.1 0-2.2-0.1-3.3-0.1-5.1 0.4-8.1 2.7-9.1 6.8-1 4 1.4 8.5 5.8 10.7 8.3 4.4 20 0.9 25.2-7.8 5.4-9.2 5.1-17.5-3.1-27.2-6-7.2-10.4-14.3-4.1-23.5z"/>
					<path id="&lt;Path&gt;" class="s1" d="m789.3 74.8c-3.7-1.7-7.5-1.5-10.9 0.9-2.6 1.7-4.4 4.3-4.6 7.4-0.7 9.6-1.6 19.1-3.5 28.5-0.6 2.8-0.3 5.7 3.1 6.7 3.1 1 6.1 0.8 8-2.1 6.4-9.8 11.1-20.1 12.7-30.9 0.1-4.9-0.6-8.6-4.8-10.5z"/>
				</g>
			</g>
			<g id="&lt;Group&gt;">
				<path id="&lt;Path&gt;" class="s1" d="m195 218.2c-13.1-15.3-18.6-32-17.1-50.8 2.4-30.6 18.1-54.4 39.9-74.7 23.7-22 51.9-32.4 84.1-33.9 34.3-1.6 68.1 2.2 101.8 8.1 1.2 0.3 2.4 0.6 3.6 0.9 11.4 2.7 16.3 11.1 12.5 22.4-1.9 5.8-4.3 11.5-6.7 17.2-11.5 27.4-24.5 54.1-41.9 78.4-3.3 4.6-6.8 9-10.4 13.4-19.7 24.2-46.1 36.8-76.1 42.4-22 4.2-43.9 3.3-64.7-5.9-5.4-2.3-9.3-5.3-9.3-5.3 0 0 1.9-3.3 5-8.6 8.5-14.2 20.4-25.4 33.2-35.6 4.5-3.6 9-7 13.4-10.6 1.4-1 2.8-2.1 4-3.4 1.5-1.5 3.6-3.1 2.7-5.6-0.8-2.4-3.4-2.8-5.5-3.2-7.7-1.5-15.2-1.2-22.4 2.4-8.2 4-14.9 9.7-20.9 16.4-8.1 8.7-14.8 18.5-20.9 28.8-1.2 2.1-2.5 4.1-4.3 7.2z"/>
				<path id="&lt;Path&gt;" class="s1" d="m144.6 210.1c-5.5-7.1-10.4-13.3-16.2-18.8-4.7-4.4-9.8-8.2-15.8-10.9-5.4-2.4-11-2.7-16.7-1.5-2.2 0.4-4.8 0.8-5.6 3.1-0.8 2.5 1.6 4 3.4 5.2 4.3 3.3 8.8 6.3 13.3 9.5 8.3 5.9 16.2 12.2 22.7 20.1 2.3 2.6 4 4.7 4 4.7 0 0-2.6 2.5-5.7 4.2-15.2 8.4-31.3 9.2-47.5 4.6-21.3-6-37.5-18.4-46.6-39.2-7.9-18.1-12.5-37-15.7-56.3-0.7-4.6-1.5-9.3-1.6-14-0.2-6.8 3.7-11.2 10.6-11.8 24.6-2 48.9-1.1 73.1 4.3 34.1 7.6 54.7 44.1 52.9 70.3-0.6 9.3-2.8 17.9-8.6 26.5z"/>
				<path id="&lt;Path&gt;" class="s2" d="m106.1 65.4c0-27 21.4-48.6 48.5-48.8 27-0.2 49.1 21.9 49 49.1-0.1 24.8-19.3 48.1-48.9 48.5-26.8 0.3-48.6-21.9-48.6-48.8z"/>
				<path id="&lt;Path&gt;" class="s3" d="m348.6 351.2c-1.2-1.6-2.7-3-4.1-4.5-15.9-15.4-33.3-28.7-52.4-39.8-54.2-31.4-112.4-43.5-174.6-35.9-26.9 3.2-53.8 10.3-78.5 21.7-5.5 2.4-9.5 4.6-14.3 7.7 5.2-2.3 21.1-7.7 23.7-8.5 20.5-6.4 41.6-9.2 63-9.4 36.2-0.3 71.2 6.2 105.3 18.1 41.6 14.4 79.8 34.7 111.4 66 1.1 1.1 2.3 2.2 3.7 3 5.4 3.2 11.9 2.1 16-2.7 3.9-4.5 4.3-10.8 0.8-15.7z"/>
				<path id="&lt;Path&gt;" class="s1" d="m-4.1 153q-0.1 0.3-0.1 0.5-0.1-0.2-0.1-0.4 0.1-0.1 0.2-0.1z"/>
			</g>
		</g>
	</g>
</svg>